<?xml version="1.0"?>
<mxfile host="Electron" modified="2022-06-09T17:40:49.553Z" agent="5.0 (X11; Linux x86_64) AppleWebKit/537.36 (KHTML, like Gecko) draw.io/18.1.3 Chrome/100.0.4896.143 Electron/18.2.3 Safari/537.36" etag="2x4RpvpqG8IxLyXCgooy" version="18.1.3">
  <diagram id="HIM0BM12n6pN52r0MS4k" name="Page-1">
    <mxGraphModel dx="2" dy="1" grid="1" gridSize="10" guides="1" tooltips="1" connect="1" arrows="1" fold="1" page="1" pageScale="1" pageWidth="850" pageHeight="1100" math="0" shadow="0">
      <root>
        <mxCell id="0"/>
        <mxCell id="1" parent="0"/>
        <mxCell id="J8pCWERRng22wtRN1Cm6-1" value="&#x5BBF;&#x4E3B;&#x6307;&#x4EE4;&#x96C6;&lt;br&gt;host ISA" style="rounded=0;whiteSpace=wrap;html=1;sketch=1;fillColor=#dae8fc;strokeColor=#6c8ebf;" parent="1" vertex="1">
          <mxGeometry x="80" y="290" width="80" height="40" as="geometry"/>
        </mxCell>
        <mxCell id="J8pCWERRng22wtRN1Cm6-2" value="&#x5BA2;&#x6237;&#x6307;&#x4EE4;&#x96C6;&lt;br&gt;guest ISA" style="rounded=0;whiteSpace=wrap;html=1;sketch=1;fillColor=#f8cecc;strokeColor=#b85450;" parent="1" vertex="1">
          <mxGeometry x="80" y="40" width="80" height="40" as="geometry"/>
        </mxCell>
        <mxCell id="J8pCWERRng22wtRN1Cm6-3" value="&#x4E2D;&#x95F4;&#x8868;&#x793A;&lt;br&gt;intermediate representation (IR)" style="rounded=0;whiteSpace=wrap;html=1;sketch=1;fillColor=#d5e8d4;strokeColor=#82b366;" parent="1" vertex="1">
          <mxGeometry x="60" y="160" width="120" height="50" as="geometry"/>
        </mxCell>
        <mxCell id="J8pCWERRng22wtRN1Cm6-5" value="&#x4E8C;&#x8FDB;&#x5236;&#x7FFB;&#x8BD1;&#x5668;&lt;br&gt;binary translator" style="rounded=1;whiteSpace=wrap;html=1;sketch=1;fillColor=#d5e8d4;strokeColor=#82b366;" parent="1" vertex="1">
          <mxGeometry x="70" y="100" width="100" height="40" as="geometry"/>
        </mxCell>
        <mxCell id="J8pCWERRng22wtRN1Cm6-6" value="&#x4E8C;&#x8FDB;&#x5236;&#x7FFB;&#x8BD1;&#x5668;&lt;br&gt;binary translator" style="rounded=1;whiteSpace=wrap;html=1;sketch=1;fillColor=#d5e8d4;strokeColor=#82b366;" parent="1" vertex="1">
          <mxGeometry x="70" y="230" width="100" height="40" as="geometry"/>
        </mxCell>
        <mxCell id="J8pCWERRng22wtRN1Cm6-7" value="" style="endArrow=classic;html=1;rounded=0;sketch=1;fillColor=#d5e8d4;strokeColor=#82b366;" parent="1" source="J8pCWERRng22wtRN1Cm6-6" target="J8pCWERRng22wtRN1Cm6-1" edge="1">
          <mxGeometry width="50" height="50" relative="1" as="geometry">
            <mxPoint x="320" y="250" as="sourcePoint"/>
            <mxPoint x="370" y="200" as="targetPoint"/>
          </mxGeometry>
        </mxCell>
        <mxCell id="J8pCWERRng22wtRN1Cm6-8" value="" style="endArrow=classic;html=1;rounded=0;sketch=1;fillColor=#d5e8d4;strokeColor=#82b366;" parent="1" source="J8pCWERRng22wtRN1Cm6-3" target="J8pCWERRng22wtRN1Cm6-6" edge="1">
          <mxGeometry width="50" height="50" relative="1" as="geometry">
            <mxPoint x="130" y="280" as="sourcePoint"/>
            <mxPoint x="130" y="300" as="targetPoint"/>
          </mxGeometry>
        </mxCell>
        <mxCell id="J8pCWERRng22wtRN1Cm6-9" value="" style="endArrow=classic;html=1;rounded=0;sketch=1;fillColor=#d5e8d4;strokeColor=#82b366;" parent="1" source="J8pCWERRng22wtRN1Cm6-5" target="J8pCWERRng22wtRN1Cm6-3" edge="1">
          <mxGeometry width="50" height="50" relative="1" as="geometry">
            <mxPoint x="130" y="220" as="sourcePoint"/>
            <mxPoint x="130" y="240" as="targetPoint"/>
          </mxGeometry>
        </mxCell>
        <mxCell id="J8pCWERRng22wtRN1Cm6-10" value="" style="endArrow=classic;html=1;rounded=0;sketch=1;fillColor=#d5e8d4;strokeColor=#82b366;" parent="1" source="J8pCWERRng22wtRN1Cm6-2" target="J8pCWERRng22wtRN1Cm6-5" edge="1">
          <mxGeometry width="50" height="50" relative="1" as="geometry">
            <mxPoint x="130" y="150" as="sourcePoint"/>
            <mxPoint x="130" y="120" as="targetPoint"/>
          </mxGeometry>
        </mxCell>
      </root>
    </mxGraphModel>
  </diagram>
</mxfile>
